<?xml version="1.0" encoding="UTF-8"?>
<svg version="1.1" xmlns="http://www.w3.org/2000/svg" width="16" height="16">
<path d="M0 0 C1.91015625 0.23046875 1.91015625 0.23046875 3.91015625 2.23046875 C5.71492368 7.34397647 5.91015625 10.59922568 5.91015625 16.23046875 C0.63015625 16.23046875 -4.64984375 16.23046875 -10.08984375 16.23046875 C-10.08984375 7.24674912 -10.03455256 0.20032682 0 0 Z " fill="#3F2631" transform="translate(10.08984375,-0.23046875)"/>
<path d="M0 0 C1.4540625 0.0309375 1.4540625 0.0309375 2.9375 0.0625 C3.44365298 1.33089526 3.94219099 2.60233102 4.4375 3.875 C4.7159375 4.58269531 4.994375 5.29039063 5.28125 6.01953125 C5.9375 8.0625 5.9375 8.0625 5.9375 11.0625 C1.38365385 11.43173077 1.38365385 11.43173077 -0.875 9.5625 C-1.266875 9.0675 -1.65875 8.5725 -2.0625 8.0625 C-1.7325 9.0525 -1.4025 10.0425 -1.0625 11.0625 C-1.7225 11.0625 -2.3825 11.0625 -3.0625 11.0625 C-3.3925 11.7225 -3.7225 12.3825 -4.0625 13.0625 C-4.7225 13.0625 -5.3825 13.0625 -6.0625 13.0625 C-6.1875 10.6875 -6.1875 10.6875 -6.0625 8.0625 C-5.4025 7.4025 -4.7425 6.7425 -4.0625 6.0625 C-4.02186168 4.39632885 -4.019779 2.72861905 -4.0625 1.0625 C-3.0625 0.0625 -3.0625 0.0625 0 0 Z " fill="#EAB781" transform="translate(8.0625,1.9375)"/>
<path d="M0 0 C3.875 0.875 3.875 0.875 5 2 C5.99 2.33 6.98 2.66 8 3 C8 3.66 8 4.32 8 5 C3.545 5.495 3.545 5.495 -1 6 C-0.67 4.02 -0.34 2.04 0 0 Z " fill="#8C5342" transform="translate(6,10)"/>
<path d="M0 0 C2.05078125 0.03255208 4.1015625 0.06510417 6.15234375 0.09765625 C6.15234375 0.42765625 6.15234375 0.75765625 6.15234375 1.09765625 C4.50234375 1.09765625 2.85234375 1.09765625 1.15234375 1.09765625 C1.48234375 2.08765625 1.81234375 3.07765625 2.15234375 4.09765625 C1.49234375 4.09765625 0.83234375 4.09765625 0.15234375 4.09765625 C-0.17765625 4.75765625 -0.50765625 5.41765625 -0.84765625 6.09765625 C-1.50765625 6.09765625 -2.16765625 6.09765625 -2.84765625 6.09765625 C-2.89037725 4.4315372 -2.88829457 2.7638274 -2.84765625 1.09765625 C-1.84765625 0.09765625 -1.84765625 0.09765625 0 0 Z " fill="#DD9C69" transform="translate(4.84765625,8.90234375)"/>
</svg>
